<svg width="26" height="26" viewBox="0 0 26 26" fill="none" xmlns="http://www.w3.org/2000/svg">
    <path d="M9.80208 15.3277L2.08336 23.0463V20.8216C2.08336 20.4949 1.81846 20.23 1.49166 20.23C1.16495 20.23 0.9 20.4949 0.9 20.8216V24.4746V24.4752V24.5083C0.9 24.8352 1.16495 25.1 1.49166 25.1H5.1784C5.50508 25.1 5.77015 24.8353 5.77015 24.5083C5.77015 24.1816 5.50511 23.9166 5.1784 23.9166H2.8866L10.6388 16.1646C10.6388 16.1646 10.6388 16.1646 10.6388 16.1646C10.87 15.9334 10.87 15.5588 10.6388 15.3277C10.4077 15.0966 10.0331 15.0966 9.80208 15.3277Z" fill="#E1E1E1" stroke="#E1E1E1" stroke-width="0.2"/>
    <path d="M23.0461 23.9165H20.7543C20.4276 23.9165 20.1626 24.1815 20.1626 24.5083C20.1626 24.8352 20.4276 25.1 20.7543 25.1H24.441C24.7679 25.1 25.0327 24.8352 25.0327 24.5083V24.4751V24.4746V20.8216C25.0327 20.4948 24.7679 20.23 24.441 20.23C24.1142 20.23 23.8493 20.4948 23.8493 20.8216V23.0463L16.1308 15.3277L16.1308 15.3277C15.8997 15.0968 15.5252 15.0968 15.2941 15.3277L15.2941 15.3277C15.0629 15.559 15.0629 15.9335 15.2941 16.1646C15.2941 16.1646 15.2941 16.1646 15.2941 16.1646L23.0461 23.9165Z" fill="#E1E1E1" stroke="#E1E1E1" stroke-width="0.2"/>
    <path d="M2.88659 2.08341H5.1784C5.50508 2.08341 5.77015 1.81857 5.77015 1.4918C5.77015 1.16498 5.50512 0.9 5.1784 0.9H1.49166C1.16491 0.9 0.9 1.16501 0.9 1.4918V1.52501V1.5255V5.1784C0.9 5.50525 1.16496 5.77001 1.49166 5.77001C1.81845 5.77001 2.08336 5.50525 2.08336 5.1784V2.95389L9.80207 10.6723C9.80207 10.6723 9.80208 10.6723 9.80208 10.6723C10.0331 10.9035 10.4076 10.9035 10.6387 10.6724C10.6388 10.6723 10.6388 10.6723 10.6388 10.6723L2.88659 2.08341ZM2.88659 2.08341L10.6387 9.83561L2.88659 2.08341Z" fill="#E1E1E1" stroke="#E1E1E1" stroke-width="0.2"/>
    <path d="M25.0327 1.5255V5.1784C25.0327 5.50523 24.7678 5.77001 24.441 5.77001C24.1143 5.77001 23.8493 5.50526 23.8493 5.1784V2.95389L16.1308 10.6721C16.1308 10.6721 16.1308 10.6721 16.1308 10.6721C15.8997 10.9034 15.5251 10.9034 15.2941 10.6721M25.0327 1.5255L15.3648 10.6014M25.0327 1.5255V1.52501V1.4918C25.0327 1.16502 24.7679 0.9 24.441 0.9H20.7543C20.4276 0.9 20.1626 1.16499 20.1626 1.4918C20.1626 1.81856 20.4276 2.08341 20.7543 2.08341H23.0461L15.2941 9.83543M25.0327 1.5255L15.3648 9.90615M15.2941 10.6721L15.3648 10.6014M15.2941 10.6721C15.2941 10.6721 15.2941 10.6721 15.2941 10.6722L15.3648 10.6014M15.2941 10.6721C15.0629 10.4411 15.0629 10.0665 15.2941 9.83543M15.3648 10.6014C15.1727 10.4095 15.1727 10.0983 15.3648 9.90615M15.2941 9.83543L15.2941 9.83544L15.3648 9.90615M15.2941 9.83543L15.3648 9.90615" fill="#E1E1E1" stroke="#E1E1E1" stroke-width="0.2"/>
    <path d="M13.5 4C8.80555 4 5 7.80559 5 12.5C5 17.1944 8.80555 21 13.5 21C18.1944 21 22 17.1944 22 12.5C21.9945 7.80789 18.1921 4.00553 13.5 4Z" fill="#E1E1E1"/>
    <circle cx="13.5" cy="12.5" r="6.5" fill="white"/>
    <circle cx="13.5" cy="12.5" r="3.75" fill="white" stroke="#E1E1E1" stroke-width="1.5" stroke-linejoin="round"/>
</svg>
