<svg width="248" height="224" viewBox="0 0 248 224" fill="none" xmlns="http://www.w3.org/2000/svg">
<path d="M146.302 98.3066C146.215 100.507 147.317 102.868 148.537 104.68C149.757 106.492 151.474 110.301 151.906 113.018C154.181 127.342 149.868 153.506 149.38 165.444C149.38 165.444 149.277 165.419 152.426 166.867C161.865 171.186 174.129 168.04 174.129 168.04C172.248 154.533 171.043 139.498 172.153 128.126C172.799 121.47 174.137 115.695 174.806 111.191C175.814 104.356 175.467 99.2691 174.349 94.6914C173.405 90.8173 170.453 87.7601 168.414 88.1969C168.02 88.2778 167.643 88.5285 167.477 88.9086C167.328 89.2483 167.611 90.2997 168.02 91.2541C167.674 90.51 167.265 89.8144 166.84 89.2321C165.769 87.7682 163.47 85.9889 161.597 86.9109C161.235 87.0888 160.928 87.4204 160.849 87.8329C160.778 88.205 160.904 88.5851 161.085 88.9086C161.439 89.5556 161.998 90.0409 162.471 90.607C162.132 90.3078 161.762 90.0328 161.361 89.7902C158.905 88.3344 154.772 87.2344 152.859 90.1299C152.528 90.6232 152.332 91.2541 152.489 91.8283C152.757 92.8069 153.89 93.2922 154.803 93.1709C155.984 93.0172 156.842 92.5481 158.047 93.0819C161.109 94.4488 160.566 98.5655 158.684 100.749C157.133 102.553 154.764 102.884 152.898 101.453C151.481 100.369 150.183 98.2824 151.159 96.4788C151.615 95.6377 152.544 94.9421 152.434 93.9878C152.363 93.3893 151.844 92.9121 151.277 92.7665C150.702 92.6209 150.096 92.7584 149.553 92.9929C147.577 93.8826 146.388 96.1068 146.302 98.3066Z" fill="white"/>
<path d="M156.023 102.197C154.945 102.383 153.819 102.116 152.835 101.348C151.434 100.256 150.159 98.1773 151.135 96.3818C151.591 95.5488 152.528 94.8613 152.418 93.907C152.355 93.3085 151.843 92.8313 151.276 92.6776C150.71 92.532 150.103 92.6615 149.56 92.896C147.6 93.7533 146.396 95.9613 146.301 98.145C146.168 101.049 148.159 103.92 149.521 106.386C156.275 118.575 150.182 142.474 149.364 165.436" stroke="black" stroke-miterlimit="10" stroke-linecap="round" stroke-linejoin="round"/>
<path d="M133.824 72.4093C140.901 80.1412 147.962 91.3266 153.788 99.6086C156.275 97.6594 172.224 87.218 175.577 84.9939C174.892 85.1395 157.393 58.8622 154.913 57.374C153.189 58.1505 133.336 71.8755 133.824 72.4093Z" fill="white" stroke="black" stroke-miterlimit="10" stroke-linecap="round" stroke-linejoin="round"/>
<path d="M155.448 71.9316C156.999 74.4631 158.817 76.8571 160.864 79.0813" stroke="black" stroke-miterlimit="10" stroke-linecap="round" stroke-linejoin="round"/>
<path d="M146.246 72.0781C149.56 77.0279 152.874 81.9776 156.196 86.9273" stroke="black" stroke-miterlimit="10" stroke-linecap="round" stroke-linejoin="round"/>
<path d="M154.701 148.183C153.402 162.345 174.129 168.038 174.129 168.038C171.673 156.376 171.193 140.605 172.153 128.125C172.688 121.129 174.042 115.751 174.884 111.294C176.168 104.509 175.467 99.3729 174.349 94.7952C173.405 90.9211 170.453 87.8639 168.414 88.3006C168.02 88.3815 167.642 88.6322 167.477 89.0124C167.327 89.3521 167.808 90.2417 168.225 91.1961C167.878 90.452 167.272 89.9182 166.847 89.3359C165.777 87.872 163.478 86.0927 161.604 87.0147C161.242 87.1926 160.935 87.5242 160.857 87.9367C160.786 88.3087 160.912 88.6889 161.093 89.0124C161.447 89.6594 162.006 90.1447 162.478 90.7108C162.14 90.4116 161.77 90.1366 161.368 89.8939C158.912 88.4381 154.779 87.3382 152.867 90.2336C152.536 90.727 152.339 91.3578 152.497 91.9321C152.764 92.9107 153.898 93.396 154.811 93.2746C155.992 93.121 156.85 92.6519 158.054 93.1857C161.116 94.5525 160.573 98.6692 158.692 100.853C157.228 102.543 154.709 148.118 154.701 148.183Z" fill="white"/>
<path d="M169.468 103.846C170.153 100.57 170.145 97.6426 169.421 94.1163C169.09 92.5149 167.822 90.4364 166.878 89.118C165.823 87.6461 163.477 86.0204 161.604 86.9262C161.242 87.1042 160.935 87.4358 160.856 87.8402C160.785 88.2041 160.903 88.5842 161.084 88.9158C161.446 89.579 162.029 90.0886 162.501 90.6709" stroke="black" stroke-miterlimit="10" stroke-linecap="round" stroke-linejoin="round"/>
<path d="M168.326 91.4074C167.704 90.2185 167.287 89.2965 167.437 88.9568C167.61 88.5848 167.98 88.334 168.374 88.2532C170.404 87.8326 173.38 90.8413 174.34 94.6992C176.726 104.194 174.797 112.581 172.9 121.85C171.215 130.059 171.42 155.398 174.128 168.031" stroke="black" stroke-miterlimit="10" stroke-linecap="round" stroke-linejoin="round"/>
<path d="M163.997 103.474C164.69 101.768 165.131 98.0798 165.06 96.2277C164.981 94.2381 164.147 92.3617 162.777 90.9463C162.344 90.5015 161.864 90.1133 161.336 89.7898C158.904 88.3259 154.795 87.1936 152.866 90.0648C152.536 90.5581 152.339 91.1809 152.488 91.7551C152.748 92.7337 153.874 93.219 154.779 93.1058C155.952 92.9602 156.818 92.4992 158.007 93.0411C161.045 94.4241 160.478 98.5165 158.589 100.676C157.865 101.509 156.96 102.019 156.015 102.188" stroke="black" stroke-miterlimit="10" stroke-linecap="round" stroke-linejoin="round"/>
<path d="M37.306 162.88C34.543 136.328 34.4721 121.98 34.1494 109.476C34.1179 108.199 34.4642 106.444 36.2827 106.533C38.2585 106.621 38.7387 108.967 39.1795 110.269C40.5571 114.289 40.6988 118.494 40.8248 122.611C40.502 117.063 40.1872 111.442 41.4231 106.047C41.5569 105.457 41.7222 104.842 42.163 104.381C42.6038 103.92 43.391 103.661 44.0287 103.944C44.7057 104.244 44.9261 104.988 45.0599 105.635C46.1069 110.827 46.4454 116.1 46.0754 121.309C46.0124 116.092 46.5871 110.9 47.7993 105.845C47.9489 105.214 48.1221 104.567 48.5629 104.05C49.0038 103.532 49.7752 103.192 50.4994 103.386C51.5307 103.661 51.8928 104.761 52.0266 105.683C52.798 111.134 52.7115 116.739 52.7193 122.207C52.7351 128.847 54.8369 141.189 58.8122 166.099C58.8122 166.099 54.6165 166.423 48.437 166.099C41.8718 165.751 37.306 162.88 37.306 162.88Z" fill="white"/>
<path d="M37.306 162.88C34.4485 134.905 34.417 121.568 34.1494 109.476C34.1179 108.199 34.4642 106.444 36.2827 106.533C38.2585 106.621 38.7387 108.967 39.1795 110.269C40.5571 114.289 40.6988 118.494 40.8248 122.611C40.502 117.063 40.1872 111.442 41.4231 106.047C41.5569 105.457 41.7222 104.842 42.163 104.381C42.6038 103.92 43.391 103.661 44.0287 103.944C44.7057 104.244 44.9261 104.988 45.0599 105.635C46.1069 110.827 46.4454 116.1 46.0754 121.309C46.0124 116.092 46.5871 110.9 47.7993 105.845C47.9489 105.214 48.1221 104.567 48.5629 104.05C49.0038 103.532 49.7752 103.192 50.4994 103.386C51.5307 103.661 51.8928 104.761 52.0266 105.683C52.798 111.134 52.7115 116.739 52.7193 122.207" stroke="black" stroke-miterlimit="10" stroke-linecap="round" stroke-linejoin="round"/>
<path d="M32.6384 121.373C33.9609 121.171 61.4419 117.119 61.3002 115.898C60.6547 111.296 54.5461 86.9598 53.2866 78.7021C45.2808 79.8749 33.4413 82.002 25.4355 83.1747C27.6476 91.2706 32.6384 121.373 32.6384 121.373Z" fill="white" stroke="black" stroke-miterlimit="10" stroke-linecap="round" stroke-linejoin="round"/>
<path d="M47.4375 89.5078C48.6026 95.3877 49.7597 101.259 50.9248 107.139" stroke="black" stroke-miterlimit="10" stroke-linecap="round" stroke-linejoin="round"/>
<path d="M39.7783 91.2871C40.5891 95.3957 41.3999 99.4962 42.2186 103.605" stroke="black" stroke-miterlimit="10" stroke-linecap="round" stroke-linejoin="round"/>
<path d="M58.7337 166.107C57.7103 158.772 57.4033 152.366 57.1829 146.874C56.4666 129.017 58.5212 118.656 58.7888 112.024C58.8439 110.657 58.3244 108.862 56.687 109.007C55.2228 109.137 54.286 111.28 53.9948 112.558C53.7429 113.674 53.7114 114.831 53.428 115.939C52.814 118.325 51.1058 120.209 49.555 122.093C48.0042 123.978 46.4928 126.129 46.4377 128.596C46.4377 128.596 42.6434 143.631 45.3986 152.479C48.9488 163.899 58.7337 166.107 58.7337 166.107Z" fill="white"/>
<path d="M58.82 166.099C55.1596 140.663 58.4737 120.095 58.7964 112.032C58.8515 110.665 58.332 108.87 56.6946 109.015C55.2304 109.145 54.2937 111.288 54.0024 112.566C53.7505 113.682 53.719 114.838 53.4356 115.946C52.8216 118.332 51.1134 120.217 49.5626 122.101C48.0118 123.986 46.5004 126.137 46.4453 128.604" stroke="black" stroke-miterlimit="10" stroke-linecap="round" stroke-linejoin="round"/>
<path d="M66.0312 162.88C66.2517 147.804 67.7001 135.672 69.7075 125.732C74.0843 104.073 78.0754 87.8166 86.9471 75.418C87.6162 74.4798 88.5372 73.3556 89.5763 73.4689C90.2218 73.5336 90.6075 74.1078 90.6548 74.7225C90.702 75.3371 90.4895 76.0003 90.2769 76.6312C89.167 79.9472 85.9709 86.1667 85.4829 89.6526C85.9395 85.8594 89.5055 78.5318 93.3155 74.9166C94.3546 73.9299 95.9054 72.9674 97.1334 73.9137C98.1646 74.7144 96.7319 76.9223 96.1022 77.8282C95.2835 79.0171 94.4963 80.1656 93.8429 81.4515C92.6228 83.8293 91.1901 87.2667 90.395 90.5988C91.1979 87.2667 93.2604 82.0338 96.0471 79.2193C97.0389 78.2164 99.6445 75.5636 101.172 76.7606C101.447 76.979 101.597 77.3106 101.589 77.6664C101.565 78.4509 101.046 79.0899 100.573 79.7288C98.9518 81.9125 97.8104 84.2256 96.9051 86.6762C95.992 89.1511 95.866 89.4665 95.3779 90.8738C95.2126 91.3591 95.0788 91.8767 95.1418 92.3862C95.315 93.842 96.7083 93.745 97.6215 93.0656C99.4714 91.6907 100.054 89.7739 100.723 87.6549C101.18 86.2072 101.927 83.8779 103.675 83.6676C106.745 83.3036 104.738 89.5474 104.25 90.89C100.361 101.558 83.9636 131.014 90.4186 170.199C90.4186 170.199 81.2478 169.512 76.745 168.218C68.9517 165.977 66.0312 162.88 66.0312 162.88Z" fill="white"/>
<path d="M66.0312 162.88C66.2517 147.804 67.7001 135.672 69.7075 125.732C74.0843 104.073 78.0754 87.8166 86.9471 75.418C87.6162 74.4798 88.5372 73.3556 89.5763 73.4689C90.2218 73.5336 90.6075 74.1078 90.6548 74.7225C90.702 75.3371 90.4895 76.0003 90.2769 76.6312C89.167 79.9472 85.9709 86.1667 85.4829 89.6526C85.9395 85.8594 89.5055 78.5318 93.3155 74.9166C94.3546 73.9299 95.9054 72.9674 97.1334 73.9137C98.1646 74.7144 96.7319 76.9223 96.1022 77.8282C95.2835 79.0171 94.4963 80.1656 93.8429 81.4515C92.6228 83.8293 91.1901 87.2667 90.395 90.5988C91.1979 87.2667 93.2604 82.0338 96.0471 79.2193C97.0389 78.2164 99.6445 75.5636 101.172 76.7606C101.447 76.979 101.597 77.3106 101.589 77.6664C101.565 78.4509 101.046 79.0899 100.573 79.7288C98.9518 81.9125 97.8104 84.2256 96.9051 86.6762C95.992 89.1511 95.866 89.4665 95.3779 90.8738C95.2126 91.3591 95.0788 91.8767 95.1418 92.3862C95.315 93.842 96.7083 93.745 97.6215 93.0656C99.4714 91.6907 100.054 89.7739 100.723 87.6549C101.18 86.2072 101.927 83.8779 103.675 83.6676C106.745 83.3036 104.738 89.5474 104.25 90.89C100.361 101.558 83.9636 131.014 90.4186 170.199" stroke="black" stroke-miterlimit="10" stroke-linecap="round" stroke-linejoin="round"/>
<path d="M109.91 94.069C100.023 89.6773 85.6719 87.073 76.7451 80.8697C78.1306 77.7397 87.3172 55.4093 88.7735 51.333C88.7971 52.0609 120.702 60.4803 122.891 62.4295C122.528 64.4029 110.587 94.3683 109.91 94.069Z" fill="#F6BA3F"/>
<path d="M109.768 72.3125C109.768 72.3125 97.8818 67.8157 91.9385 65.9717" stroke="black" stroke-miterlimit="10" stroke-linecap="round" stroke-linejoin="round"/>
<path d="M93.8193 60.4805C96.1731 61.2165 98.5189 62.187 100.873 62.923" stroke="black" stroke-miterlimit="10" stroke-linecap="round" stroke-linejoin="round"/>
<path d="M66.0312 162.88C66.2517 147.804 67.7001 135.672 69.7075 125.732C74.0843 104.073 78.0754 87.8166 86.9471 75.418C87.6162 74.4798 88.5372 73.3556 89.5763 73.4689C90.2218 73.5336 90.6075 74.1078 90.6548 74.7225C90.702 75.3371 90.4895 76.0003 90.2769 76.6312C89.167 79.9472 85.9709 86.1667 85.4829 89.6526C85.9395 85.8594 89.5055 78.5318 93.3155 74.9166C94.3546 73.9299 95.9054 72.9674 97.1334 73.9137C98.1646 74.7144 96.7319 76.9223 96.1022 77.8282C95.2835 79.0171 94.4963 80.1656 93.8429 81.4515C92.6228 83.8293 91.1901 87.2667 90.395 90.5988C91.1979 87.2667 93.2604 82.0338 96.0471 79.2193C97.0389 78.2164 99.6445 75.5636 101.172 76.7606C101.447 76.979 101.597 77.3106 101.589 77.6664C101.565 78.4509 101.046 79.0899 100.573 79.7288C98.9518 81.9125 97.8104 84.2256 96.9051 86.6762C95.992 89.1511 95.866 89.4665 95.3779 90.8738C95.2126 91.3591 95.0788 91.8767 95.1418 92.3862L66.0312 162.88Z" fill="white"/>
<path d="M66.0312 162.88C66.2517 147.804 67.7001 135.672 69.7075 125.732C74.0843 104.073 78.0754 87.8166 86.9471 75.418C87.6162 74.4798 88.5372 73.3556 89.5763 73.4689C90.2218 73.5336 90.6075 74.1078 90.6548 74.7225C90.702 75.3371 90.4895 76.0003 90.2769 76.6312C89.167 79.9472 85.9709 86.1667 85.4829 89.6526C85.9395 85.8594 89.5055 78.5318 93.3155 74.9166C94.3546 73.9299 95.9054 72.9674 97.1334 73.9137C98.1646 74.7144 96.7319 76.9223 96.1022 77.8282C95.2835 79.0171 94.4963 80.1656 93.8429 81.4515C92.6228 83.8293 91.1901 87.2667 90.395 90.5988C91.1979 87.2667 93.2604 82.0338 96.0471 79.2193C97.0389 78.2164 99.6445 75.5636 101.172 76.7606C101.447 76.979 101.597 77.3106 101.589 77.6664C101.565 78.4509 101.046 79.0899 100.573 79.7288C98.9518 81.9125 97.8104 84.2256 96.9051 86.6762C95.992 89.1511 95.866 89.4665 95.3779 90.8738C95.2126 91.3591 95.0788 91.8767 95.1418 92.3862C95.315 93.842 96.7083 93.745 97.6215 93.0656" stroke="black" stroke-miterlimit="10" stroke-linecap="round" stroke-linejoin="round"/>
<path d="M210.135 164.344C209.875 136.231 215.016 120.492 215.693 112.024C215.795 110.754 215.551 108.983 213.733 108.951C211.757 108.918 211.143 111.231 210.623 112.501C209.009 116.432 208.631 120.613 208.269 124.722C208.915 119.198 209.552 113.609 208.631 108.15C208.529 107.551 208.395 106.929 207.986 106.443C207.577 105.958 206.797 105.651 206.152 105.893C205.459 106.152 205.191 106.88 205.026 107.519C203.68 112.639 203.035 117.88 203.097 123.104C203.467 117.904 203.184 112.687 202.271 107.559C202.153 106.921 202.027 106.257 201.618 105.724C201.208 105.182 200.46 104.793 199.72 104.939C198.681 105.149 198.248 106.225 198.059 107.139C196.973 112.533 196.737 118.13 196.406 123.59C196.005 130.213 192.895 145.661 189.416 168.218C189.416 168.218 194.029 169.051 201.059 168.218C207.836 167.425 210.135 164.344 210.135 164.344Z" fill="white"/>
<path d="M210.135 164.344C209.442 139.045 215.016 120.492 215.693 112.024C215.795 110.754 215.551 108.983 213.732 108.951C211.757 108.918 211.143 111.231 210.623 112.501C209.009 116.432 208.631 120.613 208.269 124.722C208.915 119.198 209.552 113.609 208.631 108.15C208.529 107.551 208.395 106.929 207.986 106.443C207.577 105.958 206.797 105.651 206.152 105.893C205.459 106.152 205.191 106.88 205.026 107.519C203.68 112.639 203.034 117.88 203.097 123.104C203.467 117.904 203.184 112.687 202.271 107.559C202.153 106.921 202.027 106.257 201.618 105.724C201.208 105.182 200.46 104.793 199.72 104.939C198.681 105.149 198.248 106.225 198.059 107.139C196.973 112.533 196.737 118.13 196.406 123.59" stroke="black" stroke-miterlimit="10" stroke-linecap="round" stroke-linejoin="round"/>
<path d="M199.004 119.723C197.067 119.99 195.139 120.322 193.226 120.742C192.73 120.848 186.645 122.667 186.645 122.667C186.487 121.373 182.977 93.5512 184.094 93.3814C188.345 92.8233 211.512 92.3866 219.164 91.4727C220.148 99.2774 221.258 110.916 222.242 118.712C214.488 118.688 206.703 118.664 199.004 119.723Z" fill="white" stroke="black" stroke-miterlimit="10" stroke-linecap="round" stroke-linejoin="round"/>
<path d="M211.04 99.6816C205.53 100.078 200.011 100.474 194.501 100.871" stroke="black" stroke-miterlimit="10" stroke-linecap="round" stroke-linejoin="round"/>
<path d="M211.403 107.316C207.553 107.591 203.696 107.874 199.847 108.149" stroke="black" stroke-miterlimit="10" stroke-linecap="round" stroke-linejoin="round"/>
<path d="M189.416 168.227C187.724 150.878 190.817 119.7 190.935 113.06C190.959 111.693 191.581 109.93 193.21 110.18C194.659 110.399 195.47 112.599 195.69 113.893C195.879 115.017 195.84 116.181 196.06 117.306C196.532 119.724 198.13 121.713 199.571 123.687C201.012 125.66 202.389 127.909 202.303 130.367C202.295 130.651 202.484 142.426 202.712 156.046C202.822 161.724 189.416 168.227 189.416 168.227Z" fill="white"/>
<path d="M189.416 168.227C187.677 144.456 190.81 120.387 190.936 113.06C190.959 111.693 191.581 109.93 193.211 110.18C194.659 110.399 195.47 112.599 195.69 113.893C195.879 115.017 195.84 116.181 196.06 117.306C196.533 119.724 198.131 121.713 199.571 123.687C201.012 125.66 202.389 127.909 202.303 130.367" stroke="black" stroke-miterlimit="10" stroke-linecap="round" stroke-linejoin="round"/>
<path d="M134.124 121.632C133.92 120.484 133.565 119.068 132.581 118.704C131.967 118.478 131.385 118.818 131.078 119.352C130.771 119.885 130.684 120.573 130.606 121.244C130.369 123.274 130.936 129.906 130.755 132.923C130.85 129.202 129.787 121.446 128.606 118.349C128.094 116.998 127.102 115.429 125.599 115.736C124.332 115.995 124.686 118.624 124.867 119.724C125.095 121.155 125.316 122.554 125.363 123.994C125.449 126.679 125.843 130.464 125.142 133.821C125.835 130.464 125.638 124.778 124.332 121.001C123.867 119.659 122.647 116.1 120.766 116.497C120.419 116.569 120.144 116.804 120.002 117.127C119.695 117.847 119.884 118.648 120.041 119.432C120.577 122.126 120.624 124.722 120.396 127.326C120.167 129.963 120.144 130.302 119.986 131.791C119.931 132.3 119.829 132.826 119.553 133.263C118.782 134.492 117.57 133.78 117.034 132.761C115.948 130.691 116.239 128.709 116.538 126.509C116.743 125.005 117.058 122.57 115.57 121.6C112.957 119.893 112.122 126.412 111.988 127.836C111.351 134.84 115.743 149.956 111.973 168.347C111.973 168.347 114.712 171 120.38 172.084C127.221 173.394 132.652 172.084 132.652 172.084C133.29 154.663 136.84 136.765 134.124 121.632Z" fill="white"/>
<path d="M120.387 127.31C120.158 129.946 120.135 130.286 119.977 131.774C119.922 132.284 119.82 132.809 119.544 133.246C118.773 134.475 117.561 133.764 117.025 132.745C115.939 130.674 116.23 128.693 116.53 126.493C116.734 124.988 117.049 122.554 115.561 121.583C112.948 119.877 112.113 126.396 111.98 127.819C111.342 134.823 115.734 149.939 111.964 168.331" stroke="black" stroke-miterlimit="10" stroke-linecap="round" stroke-linejoin="round"/>
<path d="M119.797 130.165C118.435 130.537 117.081 130.982 115.735 131.508C115.388 131.645 111.09 133.796 111.09 133.805C111.019 132.535 108.508 101.696 109.288 101.461C112.271 100.661 128.432 98.8975 133.793 97.5469C134.257 105.238 135.556 120.12 136.021 127.828C130.621 128.248 125.197 128.677 119.797 130.165Z" fill="white" stroke="black" stroke-miterlimit="10" stroke-linecap="round" stroke-linejoin="round"/>
<path d="M128.448 109.622C124.591 110.334 120.733 111.046 116.876 111.757" stroke="black" stroke-miterlimit="10" stroke-linecap="round" stroke-linejoin="round"/>
<path d="M134.124 121.633C133.919 120.484 133.565 119.069 132.581 118.705C131.967 118.478 131.384 118.818 131.077 119.352C130.77 119.886 130.684 120.573 130.605 121.244C130.369 123.274 130.936 127.949 130.755 130.958C130.849 127.237 129.778 121.447 128.598 118.341C128.086 116.99 127.094 115.421 125.591 115.728C124.323 115.987 124.677 118.616 124.859 119.716C125.087 121.147 125.307 122.546 125.354 123.986C125.441 126.671 125.835 130.456 125.134 133.813C125.827 130.456 125.63 124.771 124.323 120.994C123.859 119.651 122.639 116.092 120.757 116.489C120.411 116.561 120.135 116.796 119.994 117.12C119.687 117.839 119.876 118.64 120.033 119.425C120.568 122.118 120.616 124.714 120.387 127.318C120.159 129.955 120.135 130.295 119.978 131.783C119.923 132.292 119.82 132.818 119.545 133.255L132.66 172.084C133.274 154.647 136.84 136.765 134.124 121.633Z" fill="white"/>
<path d="M132.668 172.068C133.29 151.525 136.848 136.765 134.124 121.632C133.92 120.484 133.565 119.068 132.581 118.704C131.967 118.478 131.385 118.818 131.078 119.352C130.771 119.885 130.684 120.573 130.605 121.244C130.196 124.722 130.865 128.256 130.755 132.923C130.873 128.264 130.495 123.306 128.606 118.349C128.094 116.998 127.102 115.429 125.599 115.736C124.331 115.995 124.686 118.624 124.867 119.724C125.095 121.155 125.315 122.554 125.363 123.994C125.449 126.679 125.843 130.464 125.142 133.821C125.528 130.464 125.638 124.778 124.331 121.001C123.867 119.659 122.647 116.1 120.765 116.497C120.419 116.569 120.144 116.804 120.002 117.127C119.695 117.847 119.884 118.648 120.041 119.432C120.577 122.126 120.624 124.722 120.396 127.326C120.167 129.963 120.144 130.302 119.986 131.791C119.931 132.3 119.829 132.826 119.553 133.263C118.782 134.492 117.569 133.78 117.034 132.761" stroke="black" stroke-miterlimit="10" stroke-linecap="round" stroke-linejoin="round"/>
</svg>
